<?xml version="1.0" encoding="UTF-8" standalone="no"?>
<svg
   xmlns:dc="http://purl.org/dc/elements/1.1/"
   xmlns:cc="http://creativecommons.org/ns#"
   xmlns:rdf="http://www.w3.org/1999/02/22-rdf-syntax-ns#"
   xmlns:svg="http://www.w3.org/2000/svg"
   xmlns="http://www.w3.org/2000/svg"
   xmlns:sodipodi="http://sodipodi.sourceforge.net/DTD/sodipodi-0.dtd"
   xmlns:inkscape="http://www.inkscape.org/namespaces/inkscape"
   id="svg8"
   version="1.1"
   viewBox="0 0 150.00055 149.99895"
   sodipodi:docname="logo.svg"
   inkscape:version="0.92.4 (5da689c313, 2019-01-14)"
   width="150.00055"
   height="149.99895">
  <sodipodi:namedview
     pagecolor="#ffffff"
     bordercolor="#666666"
     borderopacity="1"
     objecttolerance="10"
     gridtolerance="10"
     guidetolerance="10"
     inkscape:pageopacity="0"
     inkscape:pageshadow="2"
     inkscape:window-width="1920"
     inkscape:window-height="1017"
     id="namedview829"
     showgrid="false"
     inkscape:zoom="3.3125"
     inkscape:cx="35.839125"
     inkscape:cy="90.489673"
     inkscape:window-x="-8"
     inkscape:window-y="-8"
     inkscape:window-maximized="1"
     inkscape:current-layer="g4838" />
  <defs
     id="defs2">
    <clipPath
       id="clipPath1266"
       clipPathUnits="userSpaceOnUse">
      <path
         id="path1268"
         d="m 2947.5742,3044.918 c -0.723,0.7157 -1.498,1.4784 -2.6152,2.6504 -2.8532,2.9924 -6.8812,7.3641 -11.7715,12.75 -9.7814,10.7715 -23.0125,25.624 -37.3555,41.8789 -24.7071,28.0007 -50.1463,57.4313 -69.4922,80.1093 63.0142,-32.2304 159.7873,-28.4411 236.1602,7.043 -17.6795,-23.4227 -42.6715,-55.7219 -66.4844,-85.6308 -13.2869,-16.6886 -25.5999,-31.9368 -34.7793,-42.9942 -4.5898,-5.5286 -8.4047,-10.0154 -11.1328,-13.0801 -1.0768,-1.2099 -1.8274,-1.9998 -2.5293,-2.7265 z m 45.4238,26.2793 c 0.4725,0.6326 0.7386,1.0155 1.3047,1.7656 3.035,4.022 7.3845,9.689 12.7129,16.5683 10.6572,13.7586 25.2405,32.3772 41.1739,52.5313 15.9239,20.1419 30.7897,38.4668 41.8789,51.7324 5.5445,6.6328 10.1442,12.0023 13.4453,15.6817 1.6509,1.8397 2.979,3.2654 3.8906,4.1679 0.1739,0.1724 0.2352,0.2165 0.375,0.3477 0.469,-0.1368 1.0146,-0.2976 1.7422,-0.5469 1.7465,-0.5984 4.1341,-1.4918 6.9473,-2.6035 5.6269,-2.2235 12.9704,-5.327 20.6289,-8.7363 15.4144,-6.8622 30.754,-13.4883 34.8828,-15.0235 2.1588,-0.8029 2.4031,-1.1389 2.4629,-0.9882 -0.1537,-0.2369 -0.2525,-0.4132 -0.4942,-0.7344 -0.01,0.014 -0.227,-0.212 -0.4902,-0.4317 -0.395,-0.3125 -0.986,-0.7588 -1.7324,-1.2949 -1.4914,-1.0721 -3.6052,-2.5324 -6.2403,-4.3066 -5.2709,-3.5485 -12.623,-8.3607 -21.3359,-13.9922 -17.4255,-11.2629 -40.3378,-25.8057 -63.25,-40.1953 -22.9123,-14.3896 -45.8241,-28.6225 -63.2598,-39.2539 -8.7178,-5.3158 -16.0667,-9.7314 -21.3418,-12.8067 -1.3958,-0.8135 -2.2119,-1.2649 -3.3008,-1.8808 z m 180.9512,114.1621 c 0,-0.01 -0.022,-0.043 -0.1152,-0.1582 0.057,0.071 0.072,0.1001 0.1152,0.1582 z m -281.584,-106.3301 c -4.5237,2.641 -9.9153,5.8297 -16.8867,10.0527 -15.9946,9.689 -37.2888,22.8286 -58.7754,36.2364 -21.4862,13.4079 -43.1664,27.0856 -59.9414,37.8457 -8.3876,5.38 -15.5487,10.0306 -20.834,13.5468 -2.6426,1.7581 -4.8223,3.234 -6.4316,4.3633 -1.5462,1.085 -2.5659,1.8873 -2.7637,2.0586 0.056,0.019 -0.039,-9e-4 0.9102,0.7227 2.6636,2.0293 9.1495,5.527 20.5156,11.1699 7.2247,3.587 14.3103,6.8724 19.8496,9.2617 2.77,1.1946 5.1558,2.1713 6.9492,2.832 1.426,0.5249 2.0757,0.6492 2.293,0.7344 0.1625,-0.1198 0.2462,-0.1764 0.4707,-0.3594 0.9078,-0.7361 2.2436,-1.9335 3.8828,-3.5078 3.2788,-3.1487 7.8142,-7.7981 13.2481,-13.584 10.8676,-11.572 25.3547,-27.7035 40.9668,-45.7246 33.233,-38.3604 49.0199,-56.5439 56.5468,-65.6484 z m -176.7949,120.7187 c -0.4597,4.8203 -1.3361,19.1863 -2.3887,39.0567 -1.0867,20.5161 -2.3426,46.197 -3.5156,71.3828 -1.1728,25.1859 -2.2666,49.8801 -3,68.4492 -0.3662,9.2846 -0.6409,17.0444 -0.7988,22.5469 -0.01,0.3924 -0.01,0.5526 -0.018,0.9219 0.504,-1.108 0.4659,-0.7685 1.0547,-2.2012 5.0677,-12.3362 14.2732,-37.5798 31.5527,-85.3066 18.6655,-51.5557 27.7783,-74.8713 27.793,-85.3555 0,-5.2421 -1.3578,-7.0838 -5.4805,-9.7129 -4.1225,-2.6291 -11.1298,-5.244 -20.5449,-9.6738 -8.0101,-3.7688 -13.8783,-6.4295 -18.0605,-8.1055 -3.7012,-1.4833 -5.6435,-1.8778 -6.5938,-2.002 z m 469.4785,2.0567 c -0.4966,0.1247 -0.9048,0.2087 -1.539,0.3965 -2.1816,0.6462 -5.0907,1.6451 -8.4356,2.8847 -6.6894,2.4792 -15.1529,5.9291 -23.5234,9.5528 -8.3713,3.6236 -16.6631,7.4283 -23.0176,10.6074 -3.1774,1.5894 -5.8692,3.0282 -7.8047,4.1758 -0.9086,0.5388 -1.6083,1.0046 -2.123,1.373 0,0.034 0,0.027 0,0.064 0.2305,1.0488 0.6469,2.6594 1.2324,4.6914 1.1713,4.0639 3.0009,9.8505 5.3125,16.8867 4.6227,14.0726 11.1973,33.1525 18.5039,53.7715 14.5206,40.9772 31.8638,87.8529 42.5273,113.8926 0.079,-1.3837 0.1627,-2.5006 0.2383,-4.3731 0.2344,-6.3058 0.418,-15.2102 0.5469,-25.8281 0.2608,-21.2359 0.3142,-49.3363 0.1894,-77.4375 -0.1247,-28.1013 -0.4236,-56.2135 -0.873,-77.4766 -0.2268,-10.6315 -0.4887,-19.5483 -0.7812,-25.875 -0.1437,-3.123 -0.2993,-5.5956 -0.4532,-7.3066 z m -265.1093,1.5098 c -3.6189,0.029 -7.2361,0.1683 -10.8301,0.4179 -25.5579,1.7724 -49.944,9.0926 -65.459,20.4531 -7.7571,5.6804 -13.7846,12.1309 -15.9004,19.6504 -2.7912,9.9204 2.8487,37.5395 5.9453,47.875 4.3253,14.296 13.3887,36.8126 32.7168,70.7911 19.3648,34.0422 36.3,59.9592 48.3574,77.1015 6.0288,8.571 10.8456,14.9449 14.1153,19.0274 0.045,0.052 0.048,0.063 0.09,0.1152 1.07,-54.8252 23.0952,-81.6952 44.8887,-104.0195 22.8767,-23.4341 36.7274,-49.0369 37.3808,-89.0411 -0.9312,-23.1556 -9.4286,-40.1079 -29.6445,-50.0488 -16.4249,-8.0769 -37.1413,-12.0564 -58.041,-12.3144 v 0 c -1.2052,-0.015 -2.4115,-0.017 -3.6171,-0.01 z m -137.125,40.6523 c -0.076,0.1682 -0.1122,0.238 -0.1954,0.4238 -0.7487,1.7164 -1.7574,4.1884 -2.9707,7.2754 -2.4264,6.1739 -5.6787,14.8242 -9.4589,25.0957 -7.561,20.5431 -17.2319,47.5955 -26.7129,74.5899 -9.4811,26.9947 -18.7726,53.9302 -25.5567,74.2304 -3.392,10.1503 -6.155,18.6498 -8,24.6368 -0.8915,2.8928 -1.546,5.1339 -1.9648,6.7207 1.4402,0.3556 3.4107,0.8011 5.998,1.3437 5.4431,1.1415 13.2221,2.6474 22.7246,4.4121 19.0048,3.5294 44.9361,8.0883 73.1797,12.8067 48.0125,8.0209 75.6086,12.5756 92.5,14.996 2.976,-5.7882 7.2733,-10.673 12.5801,-14.4316 -14.8796,-27.2654 -44.9442,-80.9409 -72.8848,-130.2812 -14.2106,-25.0954 -27.7444,-48.8576 -38.1933,-67.002 -5.2245,-9.0721 -9.6839,-16.7364 -13.0606,-22.4629 -3.3766,-5.7265 -5.7832,-9.6522 -6.5058,-10.6797 -0.5057,-0.7193 -1.0061,-1.2077 -1.4785,-1.6738 z m 320.3789,4.3906 c 3.8725,17.9455 -1.4712,34.3225 -12.2969,49.6074 -11.4524,16.1692 -28.5979,31.5747 -47.0606,48.1973 -36.3552,32.7327 -77.5658,70.082 -91.3535,124.4961 14.2394,5.1814 19.3811,14.2906 22.3692,21.8789 26.0322,-2.7318 76.9772,-8.951 122.6914,-14.8652 23.2388,-3.0065 44.9361,-5.9099 60.9277,-8.1719 7.996,-1.1309 14.5661,-2.0949 19.1699,-2.8379 1.9178,-0.3095 3.2712,-0.5602 4.4492,-0.7812 -0.424,-1.6013 -1.0593,-3.7913 -1.957,-6.6641 -1.8962,-6.0706 -4.7614,-14.6836 -8.2832,-24.9746 -7.045,-20.5822 -16.7245,-47.9031 -26.6465,-75.3223 -9.9224,-27.419 -20.0857,-54.9478 -28.0937,-75.9609 -4.0037,-10.5065 -7.4722,-19.3818 -10.0899,-25.7832 -1.3088,-3.2006 -2.4126,-5.7866 -3.2441,-7.6133 -0.2343,-0.5176 -0.3931,-0.8171 -0.582,-1.2051 z m -361.8516,234.1289 c 8.8777,5.5895 18.1086,11.1838 25.3672,15.5899 18.2011,11.0456 42.9526,25.915 69.8515,41.9258 26.8978,16.0099 51.6664,30.5956 69.8965,41.1914 9.1151,5.2978 16.5959,9.5955 21.8789,12.5722 2.2844,1.2872 3.9467,2.2017 5.3516,2.961 0.038,-0.3122 0.079,-0.3987 0.1133,-0.7539 0.291,-3.0014 0.4546,-7.471 0.498,-12.7481 0.079,-9.9078 -0.3318,-22.7564 -0.9668,-34.7246 -20.3618,-2.4912 -36.0851,-19.587 -35.7226,-40.4277 v -0.025 -0.02 c 0,-0.1266 0.039,-0.2575 0.039,-0.3847 -25.3322,-4.7543 -60.5626,-10.8773 -91.8144,-15.9473 -16.0978,-2.6116 -31.0095,-4.9335 -42.6875,-6.6094 z m 407.8672,7.4395 c -2.2246,0 -11.0413,0.7201 -23.5156,2.0195 -12.7832,1.3317 -29.3877,3.202 -47.2754,5.3027 -34.8182,4.089 -73.8873,8.9949 -99.8711,12.5528 -0.4214,17.0909 -11.6908,31.7014 -27.7383,37.082 0.042,3.8811 0.094,7.8314 0.207,11.9981 0.3288,12.5113 0.7579,23.8851 1.1778,32.1093 0.1889,3.7213 0.38,6.5518 0.5546,8.7715 1.4487,-0.7492 3.0012,-1.5545 5.2266,-2.7441 5.6205,-3.0046 13.5342,-7.3072 22.9785,-12.4942 18.8886,-10.3739 43.8892,-24.2573 68.9297,-38.2519 25.0401,-13.9946 50.1257,-28.1095 69.1836,-38.9434 9.529,-5.4168 17.5572,-10.0116 23.3066,-13.3613 2.8748,-1.6748 5.1812,-3.0371 6.8086,-4.0254 z"
         style="fill:none;fill-opacity:0.25;stroke:#323232;stroke-width:5.00031471;stroke-miterlimit:4;stroke-dasharray:none;stroke-opacity:1"
         inkscape:connector-curvature="0" />
    </clipPath>
    <clipPath
       id="clipPath6601"
       clipPathUnits="userSpaceOnUse">
      <path
         style="opacity:1;fill-opacity:0.25;stroke:none;stroke-width:2.64583325;stroke-linecap:round;stroke-linejoin:miter;stroke-miterlimit:4;stroke-dasharray:none;stroke-opacity:1;paint-order:markers fill stroke"
         id="path6603"
         d="m -194.022,121.8768 -79.86616,21.40007 -58.46608,-58.466084 21.40007,-79.8661593 79.86616,-21.4000737 58.46609,58.466087 z"
         transform="matrix(0.80936677,-0.21686918,0.21686918,0.80936677,-59.416831,-37.472512)"
         inkscape:connector-curvature="0" />
    </clipPath>
    <clipPath
       id="clipPath6706"
       clipPathUnits="userSpaceOnUse">
      <path
         style="stroke-width:0.26458332"
         d="m -501.56885,70.664218 c -20.16705,-11.64473 -19.71146,-11.374421 -19.71146,-11.69557 0,-0.121992 0.26789,-0.177522 0.59531,-0.123412 0.3274,0.0541 8.87016,1.417092 18.98383,3.028831 10.1137,1.611741 18.47961,3.01717 18.59089,3.123189 0.11129,0.106011 0.17082,3.83064 0.1323,8.27695 l -0.07,8.084201 z m 26.59062,2.558378 c 0,-6.333889 0.0758,-8.242498 0.33073,-8.332578 0.55695,-0.196771 36.71835,-5.951972 37.39774,-5.951972 0.34986,0 0.63368,0.0893 0.63072,0.19844 -0.004,0.15199 -19.12112,11.271822 -37.0808,21.5689 l -1.27839,0.732951 z m -37.95482,-21.196138 c -13.38083,-2.16534 -24.43075,-4.03896 -24.5554,-4.163611 -0.12578,-0.12578 3.65575,-10.40801 8.4981,-23.10699 10.48078,-27.4855397 9.48111,-25.01816985 9.9418,-24.53866985 0.34795,0.36217 31.81723,54.75910985 32.08999,55.46987885 0.0919,0.239421 -0.13311,0.331031 -0.75753,0.308462 -0.4885,-0.0176 -11.83613,-1.803742 -25.21696,-3.96907 z m 41.99509,3.66722 c 0.27014,-0.703922 31.74762,-55.11593084 32.0933,-55.47649085 0.45945,-0.47922 -0.54711,-2.96302005 9.94052,24.52934985 5.20047,13.632469 8.63333,22.981571 8.49091,23.12402 -0.22532,0.22529 -48.9525,8.15708 -50.11127,8.15708 -0.32739,0 -0.4909,-0.132101 -0.41346,-0.333959 z m -8.35118,-2.76093 c -6.33841,-10.679541 -33.50696,-58.2171709 -33.41259,-58.4630609 0.20257,-0.5278898 67.30678,-0.52827 67.50934,-2.598e-4 0.14544,0.3790198 -33.25333,58.4367197 -33.70305,58.5866297 -0.14721,0.0491 -0.32438,-0.006 -0.3937,-0.12319 z M -539.27198,6.1536773 c 0,-14.9525201 0.0879,-22.0927103 0.27197,-22.0927103 0.59005,0 13.75095,7.8114701 13.75095,8.1616903 0,0.60075 -13.58281,36.0237297 -13.81316,36.0237297 -0.11538,0 -0.20976,-9.94172 -0.20976,-22.0927097 z m 113.42876,4.2668297 c -3.74092,-9.80422984 -6.8017,-17.9917197 -6.8017,-18.1944199 0,-0.34246 13.18559,-8.1651201 13.7628,-8.1651201 0.16836,0 0.26014,7.7936401 0.26014,22.0927103 0,12.1509897 -0.0944,22.0927097 -0.20979,22.0927097 -0.11538,0 -3.27054,-8.02165 -7.01145,-17.82588 z m -85.38295,-24.50236 c 0,-0.34176 32.00093,-39.69259 32.27885,-39.69259 0.28165,0 32.27951,39.33943 32.27951,39.68568 0,0.17736 -10.78921,0.2664 -32.27917,0.2664 -20.92042,0 -32.27919,-0.0913 -32.27919,-0.25949 z m -16.67415,-4.79276 c -3.56227,-2.05114 -6.63945,-3.88485 -6.83818,-4.07492 -0.30329,-0.29009 -0.2608,-0.40876 0.26458,-0.73919 3.26361,-2.05247 37.59502,-21.647491 37.71583,-21.52669 0.19632,0.196321 1.71103,-1.719559 -12.21634,15.45191 -6.52108,8.04002 -11.98981,14.61822 -12.15277,14.61822 -0.16295,0 -3.21085,-1.6782 -6.77312,-3.72933 z m 78.76538,-11.137241 c -6.64673,-8.17662 -12.08498,-14.97592 -12.08498,-15.109558 0,-0.133641 0.19476,-0.168251 0.43275,-0.0769 0.40717,0.15625 36.02249,20.65466 37.36711,21.50665 0.52623,0.33344 0.56835,0.45217 0.26458,0.74576 -0.52954,0.51177 -13.22517,7.80064 -13.58704,7.80064 -0.1691,0 -5.74569,-6.68996 -12.39242,-14.86657 z"
         id="path6708"
         inkscape:connector-curvature="0" />
    </clipPath>
  </defs>
  <metadata
     id="metadata5">
    <rdf:RDF>
      <cc:Work
         rdf:about="">
        <dc:format>image/svg+xml</dc:format>
        <dc:type
           rdf:resource="http://purl.org/dc/dcmitype/StillImage" />
        <dc:title />
      </cc:Work>
    </rdf:RDF>
  </metadata>
  <g
     id="g4838"
     transform="matrix(1.8300688,-0.00184397,0.00184397,1.8300688,-157.01073,-567.91432)">
    <path
       style="opacity:1;fill:#f87171;fill-opacity:1;fill-rule:nonzero;stroke:none;stroke-width:0.96377516;stroke-linecap:round;stroke-linejoin:round;stroke-miterlimit:4;stroke-dasharray:none;stroke-dashoffset:0;stroke-opacity:1"
       clip-path="none"
       d="m 126.46343,310.45145 a 40.981959,40.981959 0 0 0 -23.14711,7.13467 40.981959,40.981959 0 0 0 -3.26399,2.47591 40.981959,40.981959 0 0 0 -8.092542,9.1936 40.981959,40.981959 0 0 0 -2.04201,3.55079 40.981959,40.981959 0 0 0 -1.6772,3.73792 40.981959,40.981959 0 0 0 -0.61216,1.67709 40.981959,40.981959 0 0 0 -0.3213,1.12241 40.981959,40.981959 0 0 0 -0.14237,0.42782 40.981959,40.981959 0 0 0 -0.21945,0.65827 40.981959,40.981959 0 0 0 0,10e-4 40.981959,40.981959 0 0 0 -10e-4,0.005 40.981959,40.981959 0 0 0 -0.0964,0.35103 40.981959,40.981959 0 0 0 -0.14583,0.67648 40.981959,40.981959 0 0 0 -0.40634,1.84379 40.981959,40.981959 0 0 0 -0.25193,1.11928 40.981959,40.981959 0 0 0 -0.043,0.27957 40.981959,40.981959 0 0 0 -0.0344,0.22516 40.981959,40.981959 0 0 0 -0.16974,1.11189 40.981959,40.981959 0 0 0 -0.006,0.0747 40.981959,40.981959 0 0 0 -0.10261,1.21228 40.981959,40.981959 0 0 0 -0.15082,1.3958 40.981959,40.981959 0 0 0 -0.0209,0.57736 40.981959,40.981959 0 0 0 -0.011,0.29348 40.981959,40.981959 0 0 0 -0.0422,0.59441 40.981959,40.981959 0 0 0 0.003,0.50481 40.981959,40.981959 0 0 0 -0.0252,0.69581 40.981959,40.981959 0 0 0 0.0387,0.78447 40.981959,40.981959 0 0 0 0.0455,1.41841 40.981959,40.981959 0 0 0 0.0196,0.70119 40.981959,40.981959 0 0 0 0.0687,0.62227 40.981959,40.981959 0 0 0 0.1438,1.33634 40.981959,40.981959 0 0 0 0.18747,1.41321 40.981959,40.981959 0 0 0 0.0911,0.69807 40.981959,40.981959 0 0 0 0.13172,0.617 40.981959,40.981959 0 0 0 0.2751,1.30871 40.981959,40.981959 0 0 0 0.32412,1.37387 40.981959,40.981959 0 0 0 0.16365,0.69921 40.981959,40.981959 0 0 0 0.18831,0.5893 40.981959,40.981959 0 0 0 0.41384,1.30352 40.981959,40.981959 0 0 0 0.45652,1.3217 40.981959,40.981959 0 0 0 0.22558,0.66406 40.981959,40.981959 0 0 0 0.25129,0.57869 40.981959,40.981959 0 0 0 0.53983,1.25135 40.981959,40.981959 0 0 0 0.5889,1.27595 40.981959,40.981959 0 0 0 0.28965,0.63423 40.981959,40.981959 0 0 0 0.31001,0.55422 40.981959,40.981959 0 0 0 0.65623,1.18103 40.981959,40.981959 0 0 0 0.71809,1.21951 40.981959,40.981959 0 0 0 0.35265,0.60335 40.981959,40.981959 0 0 0 0.35701,0.51156 40.981959,40.981959 0 0 0 0.78009,1.12246 40.981959,40.981959 0 0 0 0.82384,1.12464 40.981959,40.981959 0 0 0 0.42205,0.57994 40.981959,40.981959 0 0 0 0.40401,0.47105 40.981959,40.981959 0 0 0 0.88263,1.03185 40.981959,40.981959 0 0 0 0.93919,1.04471 40.981959,40.981959 0 0 0 0.47119,0.52876 40.981959,40.981959 0 0 0 0.45954,0.43696 40.981959,40.981959 0 0 0 0.97345,0.93162 40.981959,40.981959 0 0 0 1.04281,0.94983 40.981959,40.981959 0 0 0 0.51393,0.47223 40.981959,40.981959 0 0 0 0.765652,0.62298 40.981959,40.981959 0 0 0 0.29752,0.23936 40.981959,40.981959 0 0 0 0.38816,0.31202 40.981959,40.981959 0 0 0 0.36901,0.25545 40.981959,40.981959 0 0 0 0.8777,0.63375 40.981959,40.981959 0 0 0 1.03877,0.71503 40.981959,40.981959 0 0 0 0.80523,0.53551 40.981959,40.981959 0 0 0 0.67942,0.41477 40.981959,40.981959 0 0 0 0.68473,0.42758 40.981959,40.981959 0 0 0 0.38828,0.19997 40.981959,40.981959 0 0 0 0.95786,0.51645 40.981959,40.981959 0 0 0 0.86507,0.45764 40.981959,40.981959 0 0 0 0.87366,0.4107 40.981959,40.981959 0 0 0 0.97607,0.45136 40.981959,40.981959 0 0 0 1.00065,0.41724 40.981959,40.981959 0 0 0 0.89185,0.36376 40.981959,40.981959 0 0 0 0.90897,0.32109 40.981959,40.981959 0 0 0 1.02099,0.35428 40.981959,40.981959 0 0 0 1.483,0.46255 40.981959,40.981959 0 0 0 0.26353,0.076 40.981959,40.981959 0 0 0 0.24966,0.0728 40.981959,40.981959 0 0 0 0.14191,0.0311 40.981959,40.981959 0 0 0 0.76824,0.1758 40.981959,40.981959 0 0 0 1.6688,0.35814 40.981959,40.981959 0 0 0 1.24841,0.26167 40.981959,40.981959 0 0 0 0.31478,0.0548 40.981959,40.981959 0 0 0 0.795,0.10005 40.981959,40.981959 0 0 0 1.70312,0.19062 40.981959,40.981959 0 0 0 1.28375,0.1379 40.981959,40.981959 0 0 0 0.30308,0.0195 40.981959,40.981959 0 0 0 0.74171,0.0189 40.981959,40.981959 0 0 0 0.0779,0.002 40.981959,40.981959 0 0 0 0.95515,0.0351 40.981959,40.981959 0 0 0 0.60297,0.022 40.981959,40.981959 0 0 0 0.78019,-0.0387 40.981959,40.981959 0 0 0 0.93811,-0.003 40.981959,40.981959 0 0 0 0.77274,-0.0579 40.981959,40.981959 0 0 0 1.12175,-0.0779 40.981959,40.981959 0 0 0 1.24774,-0.13855 40.981959,40.981959 0 0 0 0.9382,-0.0972 40.981959,40.981959 0 0 0 0.76215,-0.13584 40.981959,40.981959 0 0 0 1.10799,-0.18885 40.981959,40.981959 0 0 0 1.22225,-0.26131 40.981959,40.981959 0 0 0 0.93297,-0.1933 40.981959,40.981959 0 0 0 0.73874,-0.20843 40.981959,40.981959 0 0 0 1.08035,-0.29774 40.981959,40.981959 0 0 0 1.19996,-0.38514 40.981959,40.981959 0 0 0 0.90638,-0.28404 40.981959,40.981959 0 0 0 0.7132,-0.28209 40.981959,40.981959 0 0 0 1.03776,-0.40024 40.981959,40.981959 0 0 0 1.16487,-0.50684 40.981959,40.981959 0 0 0 0.86377,-0.36839 40.981959,40.981959 0 0 0 0.69193,-0.35683 40.981959,40.981959 0 0 0 0.99625,-0.50487 40.981959,40.981959 0 0 0 1.10415,-0.61895 40.981959,40.981959 0 0 0 0.82116,-0.45275 40.981959,40.981959 0 0 0 1.02626,-0.63931 40.981959,40.981959 0 0 0 0.28621,-0.18222 40.981959,40.981959 0 0 0 0.32038,-0.20351 40.981959,40.981959 0 0 0 0.17516,-0.12896 40.981959,40.981959 0 0 0 0.8181,-0.59257 40.981959,40.981959 0 0 0 1.26136,-0.93363 40.981959,40.981959 0 0 0 0.82987,-0.63204 40.981959,40.981959 0 0 0 0.37278,-0.30378 40.981959,40.981959 0 0 0 0.74347,-0.66095 40.981959,40.981959 0 0 0 1.16863,-1.06072 40.981959,40.981959 0 0 0 0.84603,-0.77717 l -0.005,-0.005 a 40.981959,40.981959 0 0 0 0.25961,-0.26548 40.981959,40.981959 0 0 0 0.67631,-0.73465 40.981959,40.981959 0 0 0 1.23192,-1.38617 40.981959,40.981959 0 0 0 0.81204,-0.93516 40.981959,40.981959 0 0 0 0.60381,-0.80408 40.981959,40.981959 0 0 0 1.08582,-1.50052 40.981959,40.981959 0 0 0 0.71501,-1.0121 40.981959,40.981959 0 0 0 0.52275,-0.86286 40.981959,40.981959 0 0 0 0.92584,-1.59353 40.981959,40.981959 0 0 0 0.61155,-1.07943 40.981959,40.981959 0 0 0 0.43422,-0.91206 40.981959,40.981959 0 0 0 1.02463,-2.19535 40.981959,40.981959 0 0 0 0.0792,-0.2219 40.981959,40.981959 0 0 0 0.16476,-0.41179 40.981959,40.981959 0 0 0 0.58334,-1.67712 40.981959,40.981959 0 0 0 0.60691,-1.76567 40.981959,40.981959 0 0 0 0.12316,-0.42464 40.981959,40.981959 0 0 0 0.4212,-1.76266 40.981959,40.981959 0 0 0 0.42445,-1.80748 40.981959,40.981959 0 0 0 0.0773,-0.42254 40.981959,40.981959 0 0 0 0.2387,-1.76178 40.981959,40.981959 0 0 0 0.24628,-1.86422 40.981959,40.981959 0 0 0 0.0367,-0.43967 40.981959,40.981959 0 0 0 0.13228,-3.12048 40.981959,40.981959 0 0 0 -0.006,-0.13768 40.981959,40.981959 0 0 0 -0.007,-0.40556 40.981959,40.981959 0 0 0 -0.1038,-1.84536 40.981959,40.981959 0 0 0 -0.1038,-1.83896 40.981959,40.981959 0 0 0 -0.0455,-0.39173 40.981959,40.981959 0 0 0 -0.29056,-1.84982 40.981959,40.981959 0 0 0 -0.28846,-1.81887 40.981959,40.981959 0 0 0 -0.0807,-0.36828 40.981959,40.981959 0 0 0 -0.46015,-1.95138 l -0.0459,0.0128 a 40.981959,40.981959 0 0 0 -0.43271,-1.64612 40.981959,40.981959 0 0 0 -0.74927,-2.0584 40.981959,40.981959 0 0 0 -0.66628,-1.7915 40.981959,40.981959 0 0 0 -0.94361,-1.95614 40.981959,40.981959 0 0 0 -0.84565,-1.72338 40.981959,40.981959 0 0 0 -1.11983,-1.83144 40.981959,40.981959 0 0 0 -1.03354,-1.66274 40.981959,40.981959 0 0 0 -1.26834,-1.67151 40.981959,40.981959 0 0 0 -1.2172,-1.58074 40.981959,40.981959 0 0 0 -1.42962,-1.5372 40.981959,40.981959 0 0 0 -1.37207,-1.4539 40.981959,40.981959 0 0 0 -1.58238,-1.39328 40.981959,40.981959 0 0 0 -1.49817,-1.29927 40.981959,40.981959 0 0 0 -1.70315,-1.22051 40.981959,40.981959 0 0 0 -1.64025,-1.15747 40.981959,40.981959 0 0 0 -1.52095,-0.93324 l -0.0257,0.0437 a 40.981959,40.981959 0 0 0 -20.45982,-5.55533 z m -0.0692,15.77483 h 0.001 0.002 c 0.001,0 0.003,-2e-5 0.004,1e-5 0.0159,2e-5 0.0311,0.002 0.047,0.002 3.07821,0.0216 5.29302,1.6584 6.57367,3.71208 1.15184,1.84689 1.63029,3.98893 1.72196,5.86409 0.18315,0.0908 0.37924,0.18291 0.56429,0.27379 2.38934,1.17332 4.90477,2.35343 7.23766,3.5484 0.10176,0.0522 0.20944,0.10388 0.31041,0.15613 0.32303,0.16694 0.63781,0.33395 0.95147,0.50149 0.10396,0.0556 0.21186,0.11009 0.31467,0.16574 0.40254,0.21773 0.79659,0.43658 1.17864,0.65541 0.82318,0.47149 1.59358,0.94486 2.29313,1.42707 0.69956,0.48222 1.32829,0.97387 1.86831,1.48322 0.34605,0.3263 0.65766,0.66712 0.92854,1.02228 h -0.001 c 0.27932,0.36611 0.50899,0.74835 0.67334,1.1501 0.04,0.0987 0.078,0.19783 0.10963,0.29894 0.002,0.006 0.004,0.0114 0.005,0.0171 0.0144,0.0465 0.0257,0.0939 0.0383,0.14091 0.028,0.10584 0.052,0.2128 0.0701,0.32131 0.007,0.0422 0.0135,0.0844 0.0191,0.12702 0.0186,0.14414 0.0317,0.28966 0.0316,0.43867 -5.7e-4,0.57518 -0.282,1.04424 -0.59905,1.38788 -0.31688,0.34363 -0.69639,0.6101 -1.12894,0.85906 -0.21625,0.12445 -0.44728,0.24345 -0.6898,0.3579 -0.48502,0.22888 -1.01903,0.4394 -1.58762,0.63341 -0.2843,0.097 -0.57667,0.18916 -0.87649,0.27873 -1.78162,0.53265 -3.77673,0.92758 -5.51127,1.09584 0.21527,0.3718 0.43876,0.7397 0.67018,1.1042 0.23143,0.3645 0.47078,0.72627 0.71503,1.08397 0.4885,0.7154 0.99889,1.41712 1.5187,2.10827 1.0396,1.38229 2.11493,2.71982 3.11975,4.02877 2.03229,2.64758 3.83878,5.20066 4.25668,7.95524 0.0597,0.39352 0.0909,0.79065 0.0906,1.19327 -4.8e-4,0.46014 0.004,0.81909 -0.0364,1.17819 -0.0402,0.35923 -0.14032,0.80508 -0.49958,1.16386 -0.17975,0.1794 -0.38067,0.29425 -0.58201,0.36868 -0.10068,0.0372 -0.20203,0.0636 -0.29999,0.084 -0.0976,0.0203 -0.19336,0.0347 -0.28286,0.0445 -0.17971,0.0199 -0.35868,0.0288 -0.55073,0.0325 -0.19205,0.004 -0.39639,0.002 -0.62647,0.002 l -1,-10e-4 -11.88906,-0.012 c -0.22959,-2.3e-4 -0.44406,0.004 -0.64782,10e-4 -0.20375,-0.002 -0.39678,-0.01 -0.58268,-0.0315 -0.0933,-0.0108 -0.18393,-0.025 -0.27424,-0.044 -0.0896,-0.0189 -0.17798,-0.0426 -0.26567,-0.0718 -3.1e-4,-1.1e-4 -7.6e-4,10e-5 -0.001,0 -0.088,-0.0293 -0.17434,-0.0641 -0.26137,-0.10592 -0.087,-0.0419 -0.17427,-0.091 -0.26133,-0.14755 -0.34833,-0.22645 -0.58571,-0.49234 -0.79854,-0.81724 -0.10641,-0.16245 -0.20627,-0.33993 -0.31109,-0.53394 -0.10483,-0.194 -0.21506,-0.40516 -0.33981,-0.63535 l -0.0107,-0.0192 -0.009,-0.0181 c 0,0 -1.11687,-2.27482 -2.44902,-4.53291 -0.33303,-0.56447 -0.68039,-1.12804 -1.02289,-1.64992 -0.34249,-0.52187 -0.6797,-1.0017 -0.99432,-1.40015 -0.1574,-0.19918 -0.31025,-0.37761 -0.44984,-0.52874 0,0 0,-10e-4 0,-10e-4 -0.1396,-0.15113 -0.26601,-0.27398 -0.3721,-0.36323 -0.0648,-0.0544 -0.0949,-0.0646 -0.13652,-0.0876 -0.0419,0.0229 -0.0718,0.0331 -0.1367,0.0874 -0.10627,0.089 -0.2332,0.2127 -0.37283,0.36356 -0.1395,0.15074 -0.29221,0.32921 -0.44984,0.52783 -0.63084,0.79563 -1.35714,1.91732 -2.02549,3.04493 -0.3342,0.56385 -0.65413,1.12833 -0.94725,1.6586 -1.4e-4,2.6e-4 1.4e-4,8.2e-4 0,10e-4 -0.29321,0.53045 -0.55889,1.02543 -0.78268,1.45066 -0.44746,0.85023 -0.72822,1.4187 -0.72822,1.4187 l -0.01,0.0192 -0.0107,0.0181 c -0.12522,0.22994 -0.23457,0.44058 -0.34002,0.63467 -0.15817,0.29113 -0.30669,0.54419 -0.48103,0.76686 0,0 0,10e-4 0,10e-4 -0.17423,0.22239 -0.37467,0.41446 -0.63773,0.58314 -0.26327,0.16887 -0.52361,0.26661 -0.79542,0.32257 -0.26261,0.0541 -0.53795,0.0686 -0.83466,0.0717 -0.0104,1.1e-4 -0.0194,9.6e-4 -0.0299,10e-4 -0.20558,0.002 -0.4228,-0.003 -0.65529,-0.003 l -12.83143,-0.0129 c -0.46762,-3.8e-4 -0.83231,0.005 -1.1942,-0.0353 -0.36188,-0.0397 -0.80661,-0.1368 -1.1692,-0.49425 -0.0906,-0.0893 -0.16467,-0.18489 -0.22597,-0.28304 -0.18391,-0.29445 -0.24941,-0.61542 -0.27979,-0.88609 -0.0391,-0.36091 -0.0345,-0.72027 -0.034,-1.1804 0.001,-1.20787 0.28813,-2.36995 0.76875,-3.51046 0.1602,-0.38017 0.3423,-0.75776 0.54223,-1.13393 0.19993,-0.37617 0.41821,-0.75136 0.65108,-1.12528 0.69864,-1.12176 1.53035,-2.23719 2.40363,-3.37006 0.50375,-0.65349 1.02466,-1.31381 1.55056,-1.98351 0.52573,-0.66948 1.05615,-1.34817 1.5773,-2.03791 0,0 0,-10e-4 0,-10e-4 0.52133,-0.68997 1.03398,-1.39091 1.52401,-2.1052 0.49003,-0.7143 0.9576,-1.44162 1.38962,-2.18431 -0.43387,-0.043 -0.88338,-0.0999 -1.34242,-0.16998 -0.45869,-0.07 -0.92564,-0.15263 -1.39464,-0.24687 -0.93799,-0.18848 -1.88173,-0.42305 -2.77199,-0.69116 -0.89892,-0.27061 -1.7362,-0.57232 -2.46334,-0.91711 -3e-4,-1.4e-4 -7.7e-4,1.4e-4 -0.001,0 -0.24238,-0.11493 -0.47201,-0.23437 -0.68801,-0.35929 -0.43207,-0.24984 -0.81072,-0.51705 -1.1272,-0.86133 -0.15782,-0.17193 -0.30728,-0.37579 -0.41668,-0.60768 0,0 0,-10e-4 0,-10e-4 -0.10944,-0.23225 -0.17987,-0.49275 -0.17958,-0.78033 3.5e-4,-0.33792 0.0509,-0.66307 0.14293,-0.97639 0.13792,-0.46969 0.37068,-0.91322 0.66944,-1.33444 0,0 0,-10e-4 0,-10e-4 0.19934,-0.28095 0.4277,-0.5512 0.67852,-0.81362 0.1254,-0.13121 0.2568,-0.25998 0.39206,-0.38701 0.27054,-0.25413 0.56326,-0.50422 0.8759,-0.75046 0.93791,-0.7387 2.05521,-1.4467 3.2914,-2.15144 0.39279,-0.22392 0.7977,-0.44735 1.212,-0.67007 2.9001,-1.55905 6.27235,-3.0893 9.35474,-4.6096 0,0 0,-0.001 0,-0.001 8.3e-4,-0.0161 0.003,-0.0329 0.004,-0.0491 0.0247,-0.45376 0.0704,-0.92169 0.14442,-1.39794 0.23006,-1.47937 0.71859,-3.02911 1.58503,-4.41251 0,0 0,-0.001 0,-0.001 0.40381,-0.64461 0.89948,-1.24735 1.48525,-1.77225 0.35147,-0.31495 0.73564,-0.60226 1.15135,-0.85264 0.83141,-0.50075 1.79028,-0.85555 2.87295,-1.00138 0.1801,-0.0242 0.36383,-0.0426 0.55076,-0.0549 0.18695,-0.0123 0.37831,-0.0188 0.57206,-0.0186 z"
       id="path1525"
       inkscape:connector-curvature="0" />
  </g>
</svg>
