<?xml version="1.0" encoding="UTF-8" standalone="no"?>
<svg
   xmlns:dc="http://purl.org/dc/elements/1.1/"
   xmlns:cc="http://creativecommons.org/ns#"
   xmlns:rdf="http://www.w3.org/1999/02/22-rdf-syntax-ns#"
   xmlns:svg="http://www.w3.org/2000/svg"
   xmlns="http://www.w3.org/2000/svg"
   xmlns:sodipodi="http://sodipodi.sourceforge.net/DTD/sodipodi-0.dtd"
   xmlns:inkscape="http://www.inkscape.org/namespaces/inkscape"
   id="svg8"
   version="1.1"
   viewBox="0 0 39.6875 39.6875"
   sodipodi:docname="logo-4.svg"
   inkscape:version="0.92.4 (5da689c313, 2019-01-14)">
  <sodipodi:namedview
     pagecolor="#ffffff"
     bordercolor="#666666"
     borderopacity="1"
     objecttolerance="10"
     gridtolerance="10"
     guidetolerance="10"
     inkscape:pageopacity="0"
     inkscape:pageshadow="2"
     inkscape:window-width="1920"
     inkscape:window-height="1017"
     id="namedview829"
     showgrid="false"
     inkscape:zoom="9.3691648"
     inkscape:cx="18.654211"
     inkscape:cy="9.7747265"
     inkscape:window-x="-8"
     inkscape:window-y="-8"
     inkscape:window-maximized="1"
     inkscape:current-layer="g4838" />
  <defs
     id="defs2">
    <clipPath
       id="clipPath1266"
       clipPathUnits="userSpaceOnUse">
      <path
         id="path1268"
         d="m 2947.5742,3044.918 c -0.723,0.7157 -1.498,1.4784 -2.6152,2.6504 -2.8532,2.9924 -6.8812,7.3641 -11.7715,12.75 -9.7814,10.7715 -23.0125,25.624 -37.3555,41.8789 -24.7071,28.0007 -50.1463,57.4313 -69.4922,80.1093 63.0142,-32.2304 159.7873,-28.4411 236.1602,7.043 -17.6795,-23.4227 -42.6715,-55.7219 -66.4844,-85.6308 -13.2869,-16.6886 -25.5999,-31.9368 -34.7793,-42.9942 -4.5898,-5.5286 -8.4047,-10.0154 -11.1328,-13.0801 -1.0768,-1.2099 -1.8274,-1.9998 -2.5293,-2.7265 z m 45.4238,26.2793 c 0.4725,0.6326 0.7386,1.0155 1.3047,1.7656 3.035,4.022 7.3845,9.689 12.7129,16.5683 10.6572,13.7586 25.2405,32.3772 41.1739,52.5313 15.9239,20.1419 30.7897,38.4668 41.8789,51.7324 5.5445,6.6328 10.1442,12.0023 13.4453,15.6817 1.6509,1.8397 2.979,3.2654 3.8906,4.1679 0.1739,0.1724 0.2352,0.2165 0.375,0.3477 0.469,-0.1368 1.0146,-0.2976 1.7422,-0.5469 1.7465,-0.5984 4.1341,-1.4918 6.9473,-2.6035 5.6269,-2.2235 12.9704,-5.327 20.6289,-8.7363 15.4144,-6.8622 30.754,-13.4883 34.8828,-15.0235 2.1588,-0.8029 2.4031,-1.1389 2.4629,-0.9882 -0.1537,-0.2369 -0.2525,-0.4132 -0.4942,-0.7344 -0.01,0.014 -0.227,-0.212 -0.4902,-0.4317 -0.395,-0.3125 -0.986,-0.7588 -1.7324,-1.2949 -1.4914,-1.0721 -3.6052,-2.5324 -6.2403,-4.3066 -5.2709,-3.5485 -12.623,-8.3607 -21.3359,-13.9922 -17.4255,-11.2629 -40.3378,-25.8057 -63.25,-40.1953 -22.9123,-14.3896 -45.8241,-28.6225 -63.2598,-39.2539 -8.7178,-5.3158 -16.0667,-9.7314 -21.3418,-12.8067 -1.3958,-0.8135 -2.2119,-1.2649 -3.3008,-1.8808 z m 180.9512,114.1621 c 0,-0.01 -0.022,-0.043 -0.1152,-0.1582 0.057,0.071 0.072,0.1001 0.1152,0.1582 z m -281.584,-106.3301 c -4.5237,2.641 -9.9153,5.8297 -16.8867,10.0527 -15.9946,9.689 -37.2888,22.8286 -58.7754,36.2364 -21.4862,13.4079 -43.1664,27.0856 -59.9414,37.8457 -8.3876,5.38 -15.5487,10.0306 -20.834,13.5468 -2.6426,1.7581 -4.8223,3.234 -6.4316,4.3633 -1.5462,1.085 -2.5659,1.8873 -2.7637,2.0586 0.056,0.019 -0.039,-9e-4 0.9102,0.7227 2.6636,2.0293 9.1495,5.527 20.5156,11.1699 7.2247,3.587 14.3103,6.8724 19.8496,9.2617 2.77,1.1946 5.1558,2.1713 6.9492,2.832 1.426,0.5249 2.0757,0.6492 2.293,0.7344 0.1625,-0.1198 0.2462,-0.1764 0.4707,-0.3594 0.9078,-0.7361 2.2436,-1.9335 3.8828,-3.5078 3.2788,-3.1487 7.8142,-7.7981 13.2481,-13.584 10.8676,-11.572 25.3547,-27.7035 40.9668,-45.7246 33.233,-38.3604 49.0199,-56.5439 56.5468,-65.6484 z m -176.7949,120.7187 c -0.4597,4.8203 -1.3361,19.1863 -2.3887,39.0567 -1.0867,20.5161 -2.3426,46.197 -3.5156,71.3828 -1.1728,25.1859 -2.2666,49.8801 -3,68.4492 -0.3662,9.2846 -0.6409,17.0444 -0.7988,22.5469 -0.01,0.3924 -0.01,0.5526 -0.018,0.9219 0.504,-1.108 0.4659,-0.7685 1.0547,-2.2012 5.0677,-12.3362 14.2732,-37.5798 31.5527,-85.3066 18.6655,-51.5557 27.7783,-74.8713 27.793,-85.3555 0,-5.2421 -1.3578,-7.0838 -5.4805,-9.7129 -4.1225,-2.6291 -11.1298,-5.244 -20.5449,-9.6738 -8.0101,-3.7688 -13.8783,-6.4295 -18.0605,-8.1055 -3.7012,-1.4833 -5.6435,-1.8778 -6.5938,-2.002 z m 469.4785,2.0567 c -0.4966,0.1247 -0.9048,0.2087 -1.539,0.3965 -2.1816,0.6462 -5.0907,1.6451 -8.4356,2.8847 -6.6894,2.4792 -15.1529,5.9291 -23.5234,9.5528 -8.3713,3.6236 -16.6631,7.4283 -23.0176,10.6074 -3.1774,1.5894 -5.8692,3.0282 -7.8047,4.1758 -0.9086,0.5388 -1.6083,1.0046 -2.123,1.373 0,0.034 0,0.027 0,0.064 0.2305,1.0488 0.6469,2.6594 1.2324,4.6914 1.1713,4.0639 3.0009,9.8505 5.3125,16.8867 4.6227,14.0726 11.1973,33.1525 18.5039,53.7715 14.5206,40.9772 31.8638,87.8529 42.5273,113.8926 0.079,-1.3837 0.1627,-2.5006 0.2383,-4.3731 0.2344,-6.3058 0.418,-15.2102 0.5469,-25.8281 0.2608,-21.2359 0.3142,-49.3363 0.1894,-77.4375 -0.1247,-28.1013 -0.4236,-56.2135 -0.873,-77.4766 -0.2268,-10.6315 -0.4887,-19.5483 -0.7812,-25.875 -0.1437,-3.123 -0.2993,-5.5956 -0.4532,-7.3066 z m -265.1093,1.5098 c -3.6189,0.029 -7.2361,0.1683 -10.8301,0.4179 -25.5579,1.7724 -49.944,9.0926 -65.459,20.4531 -7.7571,5.6804 -13.7846,12.1309 -15.9004,19.6504 -2.7912,9.9204 2.8487,37.5395 5.9453,47.875 4.3253,14.296 13.3887,36.8126 32.7168,70.7911 19.3648,34.0422 36.3,59.9592 48.3574,77.1015 6.0288,8.571 10.8456,14.9449 14.1153,19.0274 0.045,0.052 0.048,0.063 0.09,0.1152 1.07,-54.8252 23.0952,-81.6952 44.8887,-104.0195 22.8767,-23.4341 36.7274,-49.0369 37.3808,-89.0411 -0.9312,-23.1556 -9.4286,-40.1079 -29.6445,-50.0488 -16.4249,-8.0769 -37.1413,-12.0564 -58.041,-12.3144 v 0 c -1.2052,-0.015 -2.4115,-0.017 -3.6171,-0.01 z m -137.125,40.6523 c -0.076,0.1682 -0.1122,0.238 -0.1954,0.4238 -0.7487,1.7164 -1.7574,4.1884 -2.9707,7.2754 -2.4264,6.1739 -5.6787,14.8242 -9.4589,25.0957 -7.561,20.5431 -17.2319,47.5955 -26.7129,74.5899 -9.4811,26.9947 -18.7726,53.9302 -25.5567,74.2304 -3.392,10.1503 -6.155,18.6498 -8,24.6368 -0.8915,2.8928 -1.546,5.1339 -1.9648,6.7207 1.4402,0.3556 3.4107,0.8011 5.998,1.3437 5.4431,1.1415 13.2221,2.6474 22.7246,4.4121 19.0048,3.5294 44.9361,8.0883 73.1797,12.8067 48.0125,8.0209 75.6086,12.5756 92.5,14.996 2.976,-5.7882 7.2733,-10.673 12.5801,-14.4316 -14.8796,-27.2654 -44.9442,-80.9409 -72.8848,-130.2812 -14.2106,-25.0954 -27.7444,-48.8576 -38.1933,-67.002 -5.2245,-9.0721 -9.6839,-16.7364 -13.0606,-22.4629 -3.3766,-5.7265 -5.7832,-9.6522 -6.5058,-10.6797 -0.5057,-0.7193 -1.0061,-1.2077 -1.4785,-1.6738 z m 320.3789,4.3906 c 3.8725,17.9455 -1.4712,34.3225 -12.2969,49.6074 -11.4524,16.1692 -28.5979,31.5747 -47.0606,48.1973 -36.3552,32.7327 -77.5658,70.082 -91.3535,124.4961 14.2394,5.1814 19.3811,14.2906 22.3692,21.8789 26.0322,-2.7318 76.9772,-8.951 122.6914,-14.8652 23.2388,-3.0065 44.9361,-5.9099 60.9277,-8.1719 7.996,-1.1309 14.5661,-2.0949 19.1699,-2.8379 1.9178,-0.3095 3.2712,-0.5602 4.4492,-0.7812 -0.424,-1.6013 -1.0593,-3.7913 -1.957,-6.6641 -1.8962,-6.0706 -4.7614,-14.6836 -8.2832,-24.9746 -7.045,-20.5822 -16.7245,-47.9031 -26.6465,-75.3223 -9.9224,-27.419 -20.0857,-54.9478 -28.0937,-75.9609 -4.0037,-10.5065 -7.4722,-19.3818 -10.0899,-25.7832 -1.3088,-3.2006 -2.4126,-5.7866 -3.2441,-7.6133 -0.2343,-0.5176 -0.3931,-0.8171 -0.582,-1.2051 z m -361.8516,234.1289 c 8.8777,5.5895 18.1086,11.1838 25.3672,15.5899 18.2011,11.0456 42.9526,25.915 69.8515,41.9258 26.8978,16.0099 51.6664,30.5956 69.8965,41.1914 9.1151,5.2978 16.5959,9.5955 21.8789,12.5722 2.2844,1.2872 3.9467,2.2017 5.3516,2.961 0.038,-0.3122 0.079,-0.3987 0.1133,-0.7539 0.291,-3.0014 0.4546,-7.471 0.498,-12.7481 0.079,-9.9078 -0.3318,-22.7564 -0.9668,-34.7246 -20.3618,-2.4912 -36.0851,-19.587 -35.7226,-40.4277 v -0.025 -0.02 c 0,-0.1266 0.039,-0.2575 0.039,-0.3847 -25.3322,-4.7543 -60.5626,-10.8773 -91.8144,-15.9473 -16.0978,-2.6116 -31.0095,-4.9335 -42.6875,-6.6094 z m 407.8672,7.4395 c -2.2246,0 -11.0413,0.7201 -23.5156,2.0195 -12.7832,1.3317 -29.3877,3.202 -47.2754,5.3027 -34.8182,4.089 -73.8873,8.9949 -99.8711,12.5528 -0.4214,17.0909 -11.6908,31.7014 -27.7383,37.082 0.042,3.8811 0.094,7.8314 0.207,11.9981 0.3288,12.5113 0.7579,23.8851 1.1778,32.1093 0.1889,3.7213 0.38,6.5518 0.5546,8.7715 1.4487,-0.7492 3.0012,-1.5545 5.2266,-2.7441 5.6205,-3.0046 13.5342,-7.3072 22.9785,-12.4942 18.8886,-10.3739 43.8892,-24.2573 68.9297,-38.2519 25.0401,-13.9946 50.1257,-28.1095 69.1836,-38.9434 9.529,-5.4168 17.5572,-10.0116 23.3066,-13.3613 2.8748,-1.6748 5.1812,-3.0371 6.8086,-4.0254 z"
         style="fill:none;fill-opacity:0.25;stroke:#323232;stroke-width:5.00031471;stroke-miterlimit:4;stroke-dasharray:none;stroke-opacity:1"
         inkscape:connector-curvature="0" />
    </clipPath>
    <clipPath
       id="clipPath6601"
       clipPathUnits="userSpaceOnUse">
      <path
         style="opacity:1;fill:#fillColor;fill-opacity:0.25;stroke:none;stroke-width:2.64583325;stroke-linecap:round;stroke-linejoin:miter;stroke-miterlimit:4;stroke-dasharray:none;stroke-opacity:1;paint-order:markers fill stroke"
         id="path6603"
         d="m -194.022,121.8768 -79.86616,21.40007 -58.46608,-58.466084 21.40007,-79.8661593 79.86616,-21.4000737 58.46609,58.466087 z"
         transform="matrix(0.80936677,-0.21686918,0.21686918,0.80936677,-59.416831,-37.472512)"
         inkscape:connector-curvature="0" />
    </clipPath>
    <clipPath
       id="clipPath6706"
       clipPathUnits="userSpaceOnUse">
      <path
         style="fill:#fillColor;stroke-width:0.26458332"
         d="m -501.56885,70.664218 c -20.16705,-11.64473 -19.71146,-11.374421 -19.71146,-11.69557 0,-0.121992 0.26789,-0.177522 0.59531,-0.123412 0.3274,0.0541 8.87016,1.417092 18.98383,3.028831 10.1137,1.611741 18.47961,3.01717 18.59089,3.123189 0.11129,0.106011 0.17082,3.83064 0.1323,8.27695 l -0.07,8.084201 z m 26.59062,2.558378 c 0,-6.333889 0.0758,-8.242498 0.33073,-8.332578 0.55695,-0.196771 36.71835,-5.951972 37.39774,-5.951972 0.34986,0 0.63368,0.0893 0.63072,0.19844 -0.004,0.15199 -19.12112,11.271822 -37.0808,21.5689 l -1.27839,0.732951 z m -37.95482,-21.196138 c -13.38083,-2.16534 -24.43075,-4.03896 -24.5554,-4.163611 -0.12578,-0.12578 3.65575,-10.40801 8.4981,-23.10699 10.48078,-27.4855397 9.48111,-25.01816985 9.9418,-24.53866985 0.34795,0.36217 31.81723,54.75910985 32.08999,55.46987885 0.0919,0.239421 -0.13311,0.331031 -0.75753,0.308462 -0.4885,-0.0176 -11.83613,-1.803742 -25.21696,-3.96907 z m 41.99509,3.66722 c 0.27014,-0.703922 31.74762,-55.11593084 32.0933,-55.47649085 0.45945,-0.47922 -0.54711,-2.96302005 9.94052,24.52934985 5.20047,13.632469 8.63333,22.981571 8.49091,23.12402 -0.22532,0.22529 -48.9525,8.15708 -50.11127,8.15708 -0.32739,0 -0.4909,-0.132101 -0.41346,-0.333959 z m -8.35118,-2.76093 c -6.33841,-10.679541 -33.50696,-58.2171709 -33.41259,-58.4630609 0.20257,-0.5278898 67.30678,-0.52827 67.50934,-2.598e-4 0.14544,0.3790198 -33.25333,58.4367197 -33.70305,58.5866297 -0.14721,0.0491 -0.32438,-0.006 -0.3937,-0.12319 z M -539.27198,6.1536773 c 0,-14.9525201 0.0879,-22.0927103 0.27197,-22.0927103 0.59005,0 13.75095,7.8114701 13.75095,8.1616903 0,0.60075 -13.58281,36.0237297 -13.81316,36.0237297 -0.11538,0 -0.20976,-9.94172 -0.20976,-22.0927097 z m 113.42876,4.2668297 c -3.74092,-9.80422984 -6.8017,-17.9917197 -6.8017,-18.1944199 0,-0.34246 13.18559,-8.1651201 13.7628,-8.1651201 0.16836,0 0.26014,7.7936401 0.26014,22.0927103 0,12.1509897 -0.0944,22.0927097 -0.20979,22.0927097 -0.11538,0 -3.27054,-8.02165 -7.01145,-17.82588 z m -85.38295,-24.50236 c 0,-0.34176 32.00093,-39.69259 32.27885,-39.69259 0.28165,0 32.27951,39.33943 32.27951,39.68568 0,0.17736 -10.78921,0.2664 -32.27917,0.2664 -20.92042,0 -32.27919,-0.0913 -32.27919,-0.25949 z m -16.67415,-4.79276 c -3.56227,-2.05114 -6.63945,-3.88485 -6.83818,-4.07492 -0.30329,-0.29009 -0.2608,-0.40876 0.26458,-0.73919 3.26361,-2.05247 37.59502,-21.647491 37.71583,-21.52669 0.19632,0.196321 1.71103,-1.719559 -12.21634,15.45191 -6.52108,8.04002 -11.98981,14.61822 -12.15277,14.61822 -0.16295,0 -3.21085,-1.6782 -6.77312,-3.72933 z m 78.76538,-11.137241 c -6.64673,-8.17662 -12.08498,-14.97592 -12.08498,-15.109558 0,-0.133641 0.19476,-0.168251 0.43275,-0.0769 0.40717,0.15625 36.02249,20.65466 37.36711,21.50665 0.52623,0.33344 0.56835,0.45217 0.26458,0.74576 -0.52954,0.51177 -13.22517,7.80064 -13.58704,7.80064 -0.1691,0 -5.74569,-6.68996 -12.39242,-14.86657 z"
         id="path6708"
         inkscape:connector-curvature="0" />
    </clipPath>
  </defs>
  <metadata
     id="metadata5">
    <rdf:RDF>
      <cc:Work
         rdf:about="">
        <dc:format>image/svg+xml</dc:format>
        <dc:type
           rdf:resource="http://purl.org/dc/dcmitype/StillImage" />
        <dc:title />
      </cc:Work>
    </rdf:RDF>
  </metadata>
  <g
     id="g4838"
     transform="matrix(1.8300688,-0.00184397,0.00184397,1.8300688,-143.16026,-216.90798)">
    <path
       style="opacity:1;fill-opacity:0.25;fill-rule:nonzero;stroke:none;stroke-width:0.46666667;stroke-linecap:round;stroke-linejoin:round;stroke-miterlimit:4;stroke-dasharray:none;stroke-dashoffset:0;stroke-opacity:1"
       clip-path="none"
       d="M 19.84375 0 A 19.843751 19.843751 0 0 0 0 19.84375 A 19.843751 19.843751 0 0 0 19.84375 39.6875 A 19.843751 19.843751 0 0 0 39.6875 19.84375 A 19.843751 19.843751 0 0 0 19.84375 0 z M 19.818359 7.6367188 C 21.322255 7.6367224 22.404624 8.4321364 23.029297 9.4316406 C 23.587922 10.32536 23.81994 11.363577 23.865234 12.271484 C 25.570117 13.114454 27.459853 13.96309 28.980469 14.832031 C 29.778118 15.28783 30.472627 15.747503 30.996094 16.240234 C 31.519579 16.732856 31.906249 17.286918 31.90625 17.941406 C 31.906251 18.219906 31.770544 18.446773 31.617188 18.613281 C 31.463913 18.779826 31.27963 18.910437 31.070312 19.03125 C 30.651708 19.27271 30.123486 19.472409 29.542969 19.646484 C 28.680556 19.905265 27.71479 20.097403 26.875 20.179688 C 27.710331 21.619057 28.822521 22.942368 29.796875 24.208984 C 30.922982 25.672986 31.906249 27.077096 31.90625 28.636719 C 31.906108 28.859512 31.908078 29.033155 31.888672 29.207031 C 31.869403 29.380999 31.822211 29.595682 31.648438 29.769531 C 31.474536 29.943435 31.257932 29.992511 31.083984 30.011719 C 30.909976 30.032025 30.736488 30.02931 30.513672 30.029297 L 24.273438 30.029297 C 23.828771 30.029306 23.499544 30.056793 23.162109 29.837891 C 22.824557 29.618915 22.701059 29.322551 22.458984 28.876953 L 22.455078 28.867188 L 22.449219 28.857422 C 22.449219 28.857422 21.907857 27.756805 21.261719 26.664062 C 20.938651 26.117746 20.588273 25.573063 20.283203 25.1875 C 20.130579 24.994764 19.987593 24.842318 19.884766 24.755859 C 19.853336 24.730087 19.838556 24.725804 19.818359 24.714844 C 19.798075 24.725845 19.783367 24.729475 19.751953 24.755859 C 19.649121 24.842196 19.506151 24.994786 19.353516 25.1875 C 19.048445 25.573056 18.698068 26.117754 18.375 26.664062 C 17.728823 27.75679 17.1875 28.857422 17.1875 28.857422 L 17.183594 28.867188 L 17.177734 28.876953 C 16.93565 29.322563 16.812434 29.619532 16.472656 29.837891 C 16.132948 30.056341 15.80258 30.029282 15.351562 30.029297 L 9.1386719 30.03125 C 8.9122411 30.031478 8.7357955 30.032894 8.5605469 30.013672 C 8.3853057 29.994614 8.1698919 29.946385 7.9941406 29.773438 C 7.8184224 29.6006 7.7678413 29.383736 7.7480469 29.208984 C 7.7288381 29.034269 7.73047 28.859512 7.7304688 28.636719 C 7.7304693 27.077096 8.7137208 25.672913 9.8398438 24.208984 C 10.814259 22.942289 11.92643 21.620954 12.761719 20.181641 C 11.921932 20.099383 10.956155 19.907219 10.09375 19.648438 C 9.513228 19.474324 8.9850019 19.272745 8.5664062 19.03125 C 8.3570709 18.910475 8.1729492 18.781799 8.0195312 18.615234 C 7.8663402 18.448688 7.7304712 18.22186 7.7304688 17.943359 C 7.7304699 17.288871 8.1171593 16.732868 8.640625 16.240234 C 9.1641107 15.747528 9.8586118 15.28978 10.65625 14.833984 C 12.176884 13.965054 14.066604 13.114504 15.771484 12.271484 C 15.816817 11.363449 16.048738 10.327414 16.607422 9.4335938 C 17.232096 8.4341484 18.314435 7.6386683 19.818359 7.6386719 L 19.818359 7.6367188 z "
       transform="matrix(0.54642699,5.5057765e-4,-5.5057765e-4,0.54642699,78.107205,118.6032)"
       id="circle1539" />
    <path
       style="opacity:1;fill-opacity:0.25;fill-rule:nonzero;stroke:none;stroke-width:0.46666667;stroke-linecap:round;stroke-linejoin:round;stroke-miterlimit:4;stroke-dasharray:none;stroke-dashoffset:0;stroke-opacity:1"
       clip-path="none"
       d="M 19.84375 0 A 19.843751 19.843751 0 0 0 0.16992188 17.253906 A 19.843751 19.843751 0 0 0 14.707031 39.011719 A 19.843751 19.843751 0 0 0 38.177734 27.4375 A 19.843751 19.843751 0 0 0 29.765625 2.6582031 L 24.138672 12.404297 C 25.771491 13.204089 27.539046 14.008344 28.980469 14.832031 C 29.778118 15.28783 30.472627 15.747503 30.996094 16.240234 C 31.519579 16.732856 31.906249 17.286918 31.90625 17.941406 C 31.906251 18.219906 31.770544 18.446773 31.617188 18.613281 C 31.463913 18.779826 31.27963 18.910437 31.070312 19.03125 C 30.651708 19.27271 30.123486 19.472409 29.542969 19.646484 C 28.680556 19.905265 27.71479 20.097403 26.875 20.179688 C 27.710331 21.619057 28.822521 22.942368 29.796875 24.208984 C 30.922982 25.672986 31.906249 27.077096 31.90625 28.636719 C 31.906108 28.859512 31.908078 29.033155 31.888672 29.207031 C 31.869403 29.380999 31.822211 29.595682 31.648438 29.769531 C 31.474536 29.943435 31.257932 29.992511 31.083984 30.011719 C 30.909976 30.032025 30.736488 30.02931 30.513672 30.029297 L 24.273438 30.029297 C 23.828771 30.029306 23.499544 30.056793 23.162109 29.837891 C 22.824557 29.618915 22.701059 29.322551 22.458984 28.876953 L 22.455078 28.867188 L 22.449219 28.857422 C 22.449219 28.857422 21.907857 27.756805 21.261719 26.664062 C 20.938651 26.117746 20.588273 25.573063 20.283203 25.1875 C 20.130579 24.994764 19.987593 24.842318 19.884766 24.755859 C 19.853336 24.730087 19.838556 24.725804 19.818359 24.714844 C 19.798075 24.725845 19.783367 24.729475 19.751953 24.755859 C 19.649121 24.842196 19.506151 24.994786 19.353516 25.1875 C 19.048445 25.573056 18.698068 26.117754 18.375 26.664062 C 17.728823 27.75679 17.1875 28.857422 17.1875 28.857422 L 17.183594 28.867188 L 17.177734 28.876953 C 16.93565 29.322563 16.812434 29.619532 16.472656 29.837891 C 16.132948 30.056341 15.80258 30.029282 15.351562 30.029297 L 9.1386719 30.03125 C 8.9122411 30.031478 8.7357955 30.032894 8.5605469 30.013672 C 8.3853057 29.994614 8.1698919 29.946385 7.9941406 29.773438 C 7.8184224 29.6006 7.7678413 29.383736 7.7480469 29.208984 C 7.7288381 29.034269 7.73047 28.859512 7.7304688 28.636719 C 7.7304693 27.077096 8.7137208 25.672913 9.8398438 24.208984 C 10.814259 22.942289 11.92643 21.620954 12.761719 20.181641 C 11.921932 20.099383 10.956155 19.907219 10.09375 19.648438 C 9.513228 19.474324 8.9850019 19.272745 8.5664062 19.03125 C 8.3570709 18.910475 8.1729492 18.781799 8.0195312 18.615234 C 7.8663402 18.448688 7.7304712 18.22186 7.7304688 17.943359 C 7.7304699 17.288871 8.1171593 16.732868 8.640625 16.240234 C 9.1641107 15.747528 9.8586118 15.28978 10.65625 14.833984 C 12.176884 13.965054 14.066604 13.114504 15.771484 12.271484 C 15.816817 11.363449 16.048738 10.327414 16.607422 9.4335938 C 17.232096 8.4341484 18.314435 7.6386683 19.818359 7.6386719 L 19.818359 7.6367188 C 19.827124 7.6367188 19.835014 7.6386179 19.84375 7.6386719 L 19.84375 0 z "
       transform="matrix(0.54642699,5.5057765e-4,-5.5057765e-4,0.54642699,78.107205,118.6032)"
       id="path1541" />
    <path
       style="opacity:1;fill-opacity:0.25;fill-rule:nonzero;stroke:none;stroke-width:0.46666667;stroke-linecap:round;stroke-linejoin:round;stroke-miterlimit:4;stroke-dasharray:none;stroke-dashoffset:0;stroke-opacity:1"
       clip-path="none"
       d="M 19.666016 0 A 19.843751 19.843751 0 0 0 0.67578125 14.707031 A 19.843751 19.843751 0 0 0 9.921875 37.029297 A 19.843751 19.843751 0 0 0 33.875 33.875 A 19.843751 19.843751 0 0 0 37.029297 9.921875 L 28.744141 14.705078 C 28.820564 14.747681 28.905757 14.789338 28.980469 14.832031 C 29.778118 15.28783 30.472627 15.747503 30.996094 16.240234 C 31.519579 16.732856 31.906249 17.286918 31.90625 17.941406 C 31.906251 18.219906 31.770544 18.446773 31.617188 18.613281 C 31.463913 18.779826 31.27963 18.910437 31.070312 19.03125 C 30.651708 19.27271 30.123486 19.472409 29.542969 19.646484 C 28.680556 19.905265 27.71479 20.097403 26.875 20.179688 C 27.710331 21.619057 28.822521 22.942368 29.796875 24.208984 C 30.922982 25.672986 31.906249 27.077096 31.90625 28.636719 C 31.906108 28.859512 31.908078 29.033155 31.888672 29.207031 C 31.869403 29.380999 31.822211 29.595682 31.648438 29.769531 C 31.474536 29.943435 31.257932 29.992511 31.083984 30.011719 C 30.909976 30.032025 30.736488 30.02931 30.513672 30.029297 L 24.273438 30.029297 C 23.828771 30.029306 23.499544 30.056793 23.162109 29.837891 C 22.824557 29.618915 22.701059 29.322551 22.458984 28.876953 L 22.455078 28.867188 L 22.449219 28.857422 C 22.449219 28.857422 21.907857 27.756805 21.261719 26.664062 C 20.938651 26.117746 20.588273 25.573063 20.283203 25.1875 C 20.130579 24.994764 19.987593 24.842318 19.884766 24.755859 C 19.853336 24.730087 19.838556 24.725804 19.818359 24.714844 C 19.798075 24.725845 19.783367 24.729475 19.751953 24.755859 C 19.649121 24.842196 19.506151 24.994786 19.353516 25.1875 C 19.048445 25.573056 18.698068 26.117754 18.375 26.664062 C 17.728823 27.75679 17.1875 28.857422 17.1875 28.857422 L 17.183594 28.867188 L 17.177734 28.876953 C 16.93565 29.322563 16.812434 29.619532 16.472656 29.837891 C 16.132948 30.056341 15.80258 30.029282 15.351562 30.029297 L 9.1386719 30.03125 C 8.9122411 30.031478 8.7357955 30.032894 8.5605469 30.013672 C 8.3853057 29.994614 8.1698919 29.946385 7.9941406 29.773438 C 7.8184224 29.6006 7.7678413 29.383736 7.7480469 29.208984 C 7.7288381 29.034269 7.73047 28.859512 7.7304688 28.636719 C 7.7304693 27.077096 8.7137208 25.672913 9.8398438 24.208984 C 10.814259 22.942289 11.92643 21.620954 12.761719 20.181641 C 11.921932 20.099383 10.956155 19.907219 10.09375 19.648438 C 9.513228 19.474324 8.9850019 19.272745 8.5664062 19.03125 C 8.3570709 18.910475 8.1729492 18.781799 8.0195312 18.615234 C 7.8663402 18.448688 7.7304712 18.22186 7.7304688 17.943359 C 7.7304699 17.288871 8.1171593 16.732868 8.640625 16.240234 C 9.1641107 15.747528 9.8586118 15.28978 10.65625 14.833984 C 12.176884 13.965054 14.066604 13.114504 15.771484 12.271484 C 15.816817 11.363449 16.048738 10.327414 16.607422 9.4335938 C 17.232096 8.4341484 18.314435 7.6386683 19.818359 7.6386719 L 19.818359 7.6367188 C 19.827124 7.6367188 19.835014 7.6386179 19.84375 7.6386719 L 19.84375 0 A 19.843751 19.843751 0 0 0 19.666016 0 z "
       transform="matrix(0.54642699,5.5057765e-4,-5.5057765e-4,0.54642699,78.107205,118.6032)"
       id="path1543" />
    <path
       style="opacity:1;fill-opacity:0.7;fill-rule:nonzero;stroke:none;stroke-width:0.46666667;stroke-linecap:round;stroke-linejoin:round;stroke-miterlimit:4;stroke-dasharray:none;stroke-dashoffset:0;stroke-opacity:1"
       clip-path="none"
       d="M 19.84375 0 A 19.843751 19.843751 0 0 0 1.5097656 12.25 A 19.843751 19.843751 0 0 0 5.8125 33.875 A 19.843751 19.843751 0 0 0 27.4375 38.177734 A 19.843751 19.843751 0 0 0 39.6875 19.84375 L 28.75 19.84375 C 28.113463 19.995712 27.46665 20.121716 26.875 20.179688 C 27.710331 21.619057 28.822521 22.942368 29.796875 24.208984 C 30.922982 25.672986 31.906249 27.077096 31.90625 28.636719 C 31.906108 28.859512 31.908078 29.033155 31.888672 29.207031 C 31.869403 29.380999 31.822211 29.595682 31.648438 29.769531 C 31.474536 29.943435 31.257932 29.992511 31.083984 30.011719 C 30.909976 30.032025 30.736488 30.02931 30.513672 30.029297 L 24.273438 30.029297 C 23.828771 30.029306 23.499544 30.056793 23.162109 29.837891 C 22.824557 29.618915 22.701059 29.322551 22.458984 28.876953 L 22.455078 28.867188 L 22.449219 28.857422 C 22.449219 28.857422 21.907857 27.756805 21.261719 26.664062 C 20.938651 26.117746 20.588273 25.573063 20.283203 25.1875 C 20.130579 24.994764 19.987593 24.842318 19.884766 24.755859 C 19.853336 24.730087 19.838556 24.725804 19.818359 24.714844 C 19.798075 24.725845 19.783367 24.729475 19.751953 24.755859 C 19.649121 24.842196 19.506151 24.994786 19.353516 25.1875 C 19.048445 25.573056 18.698068 26.117754 18.375 26.664062 C 17.728823 27.75679 17.1875 28.857422 17.1875 28.857422 L 17.183594 28.867188 L 17.177734 28.876953 C 16.93565 29.322563 16.812434 29.619532 16.472656 29.837891 C 16.132948 30.056341 15.80258 30.029282 15.351562 30.029297 L 9.1386719 30.03125 C 8.9122411 30.031478 8.7357955 30.032894 8.5605469 30.013672 C 8.3853057 29.994614 8.1698919 29.946385 7.9941406 29.773438 C 7.8184224 29.6006 7.7678413 29.383736 7.7480469 29.208984 C 7.7288381 29.034269 7.73047 28.859512 7.7304688 28.636719 C 7.7304693 27.077096 8.7137208 25.672913 9.8398438 24.208984 C 10.814259 22.942289 11.92643 21.620954 12.761719 20.181641 C 11.921932 20.099383 10.956155 19.907219 10.09375 19.648438 C 9.513228 19.474324 8.9850019 19.272745 8.5664062 19.03125 C 8.3570709 18.910475 8.1729492 18.781799 8.0195312 18.615234 C 7.8663402 18.448688 7.7304712 18.22186 7.7304688 17.943359 C 7.7304699 17.288871 8.1171593 16.732868 8.640625 16.240234 C 9.1641107 15.747528 9.8586118 15.28978 10.65625 14.833984 C 12.176884 13.965054 14.066604 13.114504 15.771484 12.271484 C 15.816817 11.363449 16.048738 10.327414 16.607422 9.4335938 C 17.232096 8.4341484 18.314435 7.6386683 19.818359 7.6386719 L 19.818359 7.6367188 C 19.827124 7.6367188 19.835014 7.6386179 19.84375 7.6386719 L 19.84375 0 z "
       transform="matrix(0.54642699,5.5057765e-4,-5.5057765e-4,0.54642699,78.107205,118.6032)"
       id="path1545" />
  </g>
</svg>
